<?xml version="1.0" standalone="no"?>
<!DOCTYPE svg PUBLIC "-//W3C//DTD SVG 20010904//EN"
 "http://www.w3.org/TR/2001/REC-SVG-20010904/DTD/svg10.dtd">
<svg version="1.0" xmlns="http://www.w3.org/2000/svg"
 width="1346.000000pt" height="1346.000000pt" viewBox="0 0 1346.000000 1346.000000"
 preserveAspectRatio="xMidYMid meet">
<metadata>
Created by potrace 1.11, written by Peter Selinger 2001-2013
</metadata>
<g transform="translate(0.000000,1346.000000) scale(0.100000,-0.100000)"
fill="#000000" stroke="none">
<path d="M10070 12830 c-25 -4 -63 -11 -85 -14 -160 -26 -296 -113 -283 -181
6 -29 7 -29 -137 -51 -33 -5 -106 -20 -229 -49 -59 -14 -233 -71 -311 -102
-391 -157 -624 -392 -626 -630 -1 -57 -3 -65 -23 -73 -13 -5 -47 -23 -77 -41
-439 -266 -722 -724 -786 -1269 -15 -122 -8 -422 11 -516 2 -12 7 -39 10 -60
4 -22 9 -47 12 -56 3 -9 7 -25 9 -36 11 -60 89 -271 133 -358 85 -173 162
-283 299 -425 l82 -85 -10 -38 c-6 -21 -13 -48 -15 -60 -13 -58 -25 -125 -30
-156 -3 -19 -7 -46 -9 -59 -23 -137 -23 -439 -1 -571 3 -14 7 -43 11 -65 13
-93 43 -217 71 -303 19 -58 18 -63 -13 -58 -16 3 -53 7 -83 11 -30 3 -66 8
-80 10 -14 2 -50 7 -80 10 -57 6 -104 12 -167 20 -52 7 -108 13 -178 20 -33 3
-91 10 -130 15 -38 5 -97 12 -130 15 -33 3 -78 8 -100 10 -38 4 -91 9 -207 20
-129 12 -168 15 -253 21 -49 3 -108 7 -130 9 -272 26 -1212 26 -1400 0 -16 -2
-66 -7 -110 -11 -44 -4 -82 -8 -85 -9 -3 -1 -39 -5 -80 -9 -41 -5 -84 -10 -95
-12 -11 -1 -40 -6 -65 -9 -42 -6 -185 -30 -240 -40 -119 -23 -190 -38 -215
-45 -16 -5 -43 -12 -60 -14 -16 -3 -95 -24 -175 -46 -80 -22 -152 -42 -160
-44 -51 -13 -311 -104 -405 -141 -62 -25 -323 -150 -581 -278 -258 -129 -484
-239 -501 -246 -37 -15 -36 -26 4 -36 69 -17 258 -94 363 -147 160 -82 268
-157 358 -248 l77 -77 45 19 c83 36 486 168 559 183 9 2 72 17 141 34 107 25
334 70 435 85 85 13 111 16 240 30 113 13 134 15 230 21 55 3 127 8 160 11 69
7 588 6 685 0 36 -3 112 -7 170 -11 58 -3 123 -7 145 -10 22 -2 76 -7 120 -10
44 -4 91 -8 105 -10 14 -2 56 -7 95 -10 38 -4 78 -9 90 -11 11 -2 48 -6 83
-10 35 -3 71 -7 81 -9 10 -2 42 -6 72 -10 30 -3 65 -8 79 -10 38 -7 97 -16
197 -30 43 -6 105 -15 133 -20 14 -3 40 -7 58 -10 56 -9 95 -15 152 -25 30 -5
71 -12 90 -15 19 -3 46 -8 60 -10 41 -8 58 -12 215 -39 83 -14 161 -28 175
-31 14 -3 52 -10 85 -15 33 -6 83 -15 110 -20 74 -14 206 -39 235 -44 51 -8
427 -76 475 -85 28 -6 70 -13 95 -17 25 -3 54 -8 65 -10 11 -2 94 -15 185 -29
91 -14 176 -28 190 -30 59 -9 239 -35 285 -40 28 -3 64 -8 80 -10 17 -2 53 -7
80 -10 28 -3 64 -8 80 -10 17 -2 62 -7 100 -10 39 -4 81 -8 95 -11 14 -2 68
-7 120 -10 52 -3 111 -8 130 -10 177 -18 823 -25 1025 -10 172 12 361 30 435
41 14 2 45 7 70 10 53 7 98 14 188 30 316 54 651 147 1015 282 l47 18 0 90 c1
114 1 1279 0 1362 l0 61 -49 -23 c-105 -51 -487 -205 -508 -205 -2 0 -2 3 1 8
5 8 35 151 42 197 2 17 6 41 9 55 24 121 24 486 -1 612 -2 13 -7 43 -10 67 -3
24 -16 86 -28 137 l-23 92 60 59 c268 261 440 620 496 1033 12 88 12 370 0
450 -32 221 -85 403 -168 573 -144 298 -375 549 -640 698 l-78 43 -1 66 c-6
340 -476 651 -1170 775 -46 9 -94 16 -108 17 -20 2 -24 8 -24 35 0 22 -10 44
-31 67 -47 55 -119 84 -294 121 -46 10 -324 13 -375 5z m-1596 -1527 c26 -128
31 -145 86 -311 34 -102 52 -172 75 -287 33 -175 18 -471 -35 -665 -45 -162
-122 -334 -208 -463 -60 -88 -119 -190 -167 -285 l-36 -71 -32 37 c-189 217
-303 468 -343 758 -15 112 -10 316 10 434 2 14 7 43 11 65 4 22 24 92 46 157
73 219 188 403 347 553 53 50 208 165 222 165 4 0 15 -39 24 -87z m3686 -7
c114 -90 204 -189 285 -314 99 -154 182 -371 201 -527 3 -22 8 -47 11 -55 11
-32 11 -300 -2 -390 -37 -279 -155 -543 -330 -740 l-43 -48 -51 100 c-29 55
-87 155 -130 222 -99 155 -120 193 -164 296 -36 86 -84 237 -92 294 -2 17 -6
41 -9 53 -12 55 -20 168 -18 270 3 196 34 354 116 591 35 100 62 201 72 272
11 73 11 73 52 49 20 -13 66 -45 102 -73z"/>
<path d="M6169 10866 c-2 -2 -40 -6 -84 -10 -151 -13 -349 -67 -440 -120 -57
-34 -104 -83 -111 -117 -5 -23 -13 -27 -51 -33 -50 -7 -138 -60 -179 -109 -37
-43 -82 -143 -91 -198 -30 -192 41 -392 182 -508 35 -29 53 -50 53 -66 0 -40
63 -153 116 -206 90 -90 183 -146 328 -197 231 -82 503 -98 778 -47 14 3 54
13 90 24 241 70 405 186 483 341 29 58 32 74 32 150 0 76 -3 92 -32 150 -18
36 -56 90 -83 120 -90 98 -113 167 -99 300 8 88 10 91 82 160 39 39 47 52 47
84 0 54 -22 88 -82 129 -149 102 -401 155 -744 156 -105 0 -193 -1 -195 -3z
m-534 -468 c27 -12 28 -15 28 -124 0 -86 -29 -155 -92 -224 -23 -25 -54 -62
-68 -82 -14 -21 -27 -38 -29 -38 -9 0 -67 95 -80 132 -35 94 -10 241 49 296
53 49 134 67 192 40z"/>
<path d="M3094 10295 c-13 -31 -24 -60 -24 -64 0 -5 19 -24 42 -42 48 -38 109
-129 137 -203 10 -28 29 -109 40 -180 20 -119 22 -167 23 -645 1 -559 0 -594
-38 -801 -33 -178 -70 -250 -154 -298 l-49 -28 41 -65 c22 -35 43 -68 47 -72
5 -4 26 -1 47 7 88 35 214 55 323 51 58 -3 117 -7 131 -10 14 -3 54 -10 90
-15 64 -10 101 -16 150 -25 26 -5 47 -8 160 -24 84 -12 292 -7 350 9 25 7 53
14 64 16 10 2 52 20 93 40 131 64 290 243 318 359 4 17 10 41 13 55 4 14 7 86
6 160 0 120 -4 144 -28 215 -48 141 -121 233 -226 283 -70 34 -123 46 -210 46
-172 -1 -292 -69 -358 -203 -23 -48 -27 -68 -27 -141 1 -96 25 -163 77 -212
l30 -28 24 29 c44 52 114 60 201 21 85 -37 127 -109 128 -215 0 -58 -4 -78
-27 -116 -66 -112 -182 -158 -322 -129 -98 20 -200 117 -225 215 -37 146 -42
252 -41 820 1 548 3 653 14 785 12 132 50 226 123 302 l46 46 -33 54 c-18 29
-34 55 -36 57 -1 1 -27 -5 -56 -15 -67 -23 -58 -21 -157 -37 -77 -13 -309 -15
-366 -4 -11 3 -40 8 -65 12 -25 3 -58 9 -75 11 -16 3 -58 11 -93 19 -35 8 -68
15 -73 15 -6 0 -21 -25 -35 -55z"/>
<path d="M1865 10147 c-6 -12 -26 -50 -45 -84 l-34 -62 22 -43 c12 -24 51 -97
87 -163 36 -66 79 -148 97 -182 18 -35 35 -63 39 -63 3 0 19 26 36 58 17 31
45 84 63 117 97 179 120 225 120 232 0 8 -27 24 -183 111 -33 18 -86 48 -119
67 -32 19 -62 35 -66 35 -4 0 -12 -10 -17 -23z"/>
<path d="M2382 10073 c-12 -27 -42 -86 -68 -133 -25 -47 -70 -132 -101 -190
-31 -58 -75 -142 -99 -187 -24 -45 -44 -86 -44 -92 0 -6 10 -28 23 -49 13 -20
47 -82 77 -137 101 -191 142 -266 145 -263 2 2 49 93 105 203 56 110 126 245
155 300 141 269 198 386 189 394 -5 5 -65 41 -134 81 -190 110 -208 120 -217
120 -4 0 -18 -21 -31 -47z"/>
<path d="M1460 9970 c-107 -72 -197 -135 -198 -140 -2 -6 0 -16 6 -23 5 -7 51
-93 102 -192 51 -99 105 -202 120 -230 15 -27 58 -108 95 -180 74 -144 155
-298 220 -420 52 -98 119 -225 215 -410 41 -77 93 -176 116 -220 24 -44 67
-126 96 -182 51 -99 54 -102 93 -109 99 -18 208 -7 300 29 38 14 165 87 165
94 0 6 -100 196 -130 248 -10 17 -44 82 -77 145 -34 63 -72 135 -86 160 -21
39 -138 255 -279 520 -22 41 -53 98 -68 125 -31 56 -90 168 -157 295 -25 47
-53 99 -63 115 -9 17 -39 71 -65 120 -26 50 -60 113 -75 140 -15 28 -49 91
-75 140 -26 50 -51 93 -54 97 -4 4 -94 -51 -201 -122z"/>
<path d="M2613 9428 c-5 -7 -27 -47 -48 -88 -21 -41 -60 -115 -87 -165 -26
-49 -65 -123 -85 -162 l-38 -73 30 -57 c82 -159 180 -333 186 -333 4 0 38 57
75 128 106 201 157 298 228 431 36 68 68 131 70 140 4 12 -34 38 -153 104 -87
48 -161 87 -164 87 -2 0 -9 -6 -14 -12z"/>
<path d="M1315 9133 c-65 -120 -132 -243 -148 -273 -17 -30 -56 -102 -87 -160
-32 -58 -79 -145 -105 -195 -26 -49 -51 -94 -55 -100 -4 -5 -31 -55 -60 -110
-29 -55 -62 -115 -72 -133 -95 -170 -120 -229 -82 -193 15 14 172 67 255 85
94 21 99 22 179 31 36 4 72 9 80 11 8 1 20 3 25 3 6 1 19 18 30 39 11 20 36
66 56 102 20 36 56 103 81 150 25 47 94 175 153 285 60 110 108 207 107 215 0
8 -33 76 -72 150 -39 74 -89 168 -111 210 -21 41 -43 81 -47 88 -6 8 -48 -61
-127 -205z"/>
<path d="M5510 9204 c-201 -51 -352 -175 -448 -368 -49 -99 -63 -168 -58 -297
6 -155 33 -240 114 -354 93 -131 253 -241 393 -271 13 -2 44 -9 69 -14 46 -9
290 -7 325 3 223 62 386 213 460 424 41 118 45 163 30 313 -18 188 -132 369
-297 473 -163 103 -397 139 -588 91z m260 -119 c40 -21 68 -60 85 -119 15 -50
18 -71 31 -206 9 -83 9 -280 1 -439 -5 -105 -10 -131 -32 -177 -29 -59 -84
-113 -118 -115 -78 -5 -115 12 -153 73 -27 42 -50 130 -59 223 -4 33 -8 71
-11 85 -9 52 -3 326 11 463 11 114 53 198 109 222 36 16 95 11 136 -10z"/>
<path d="M6842 9204 c-135 -28 -237 -124 -288 -272 -22 -64 -20 -151 6 -231
44 -139 149 -208 435 -286 55 -15 109 -29 120 -31 43 -8 140 -45 182 -69 121
-72 90 -238 -54 -286 -60 -20 -162 -17 -202 6 -90 53 -105 167 -31 242 l30 31
-35 20 c-101 61 -267 82 -352 47 -75 -32 -133 -111 -133 -185 0 -76 69 -174
151 -216 54 -27 169 -60 244 -70 28 -3 59 -8 70 -10 31 -7 245 -6 311 1 242
26 411 138 480 320 28 73 27 224 -2 285 -49 105 -186 190 -404 250 -354 98
-416 127 -439 207 -9 33 7 96 32 120 19 19 82 25 115 10 34 -14 78 -46 165
-119 85 -70 143 -98 204 -98 131 1 210 99 211 261 0 91 -6 97 -59 64 -41 -27
-46 -27 -138 -21 -53 3 -107 8 -121 10 -14 2 -52 7 -85 11 -33 4 -64 10 -69
12 -20 13 -284 10 -344 -3z"/>
<path d="M1682 8747 c-18 -34 -55 -105 -83 -157 -28 -52 -79 -149 -114 -215
-35 -66 -79 -150 -99 -187 -20 -37 -36 -71 -36 -75 0 -5 30 -8 68 -7 99 2 178
-11 307 -50 43 -14 80 -24 81 -23 0 1 37 71 80 155 l79 153 -42 82 c-81 157
-195 372 -202 379 -4 4 -21 -20 -39 -55z"/>
<path d="M1993 8258 c-5 -7 -22 -38 -37 -68 -16 -30 -44 -83 -63 -117 -26 -47
-31 -64 -21 -68 7 -2 72 -26 143 -53 72 -27 142 -52 157 -56 27 -6 27 -6 16
21 -7 16 -15 33 -19 38 -3 6 -41 78 -84 160 -43 83 -79 151 -80 153 -1 1 -6
-3 -12 -10z"/>
<path d="M1377 8004 c-1 -1 -47 -4 -103 -8 -55 -4 -112 -9 -125 -11 -13 -3
-42 -8 -64 -11 -77 -10 -234 -54 -314 -89 -167 -71 -287 -169 -392 -320 -157
-225 -200 -372 -194 -665 3 -156 5 -173 30 -271 48 -183 156 -315 380 -464
133 -88 254 -145 410 -193 72 -23 234 -73 360 -112 261 -80 348 -112 490 -180
356 -171 505 -374 506 -689 1 -255 -164 -480 -411 -560 -331 -108 -735 46
-865 331 -113 248 -29 530 207 691 26 18 48 34 48 37 0 11 -86 93 -127 121
-55 38 -153 75 -223 84 -174 23 -430 -12 -540 -73 -108 -61 -231 -202 -260
-300 -36 -118 -46 -252 -26 -345 52 -235 212 -420 481 -555 89 -45 301 -125
359 -136 11 -2 59 -13 106 -24 81 -20 163 -36 240 -47 19 -2 62 -9 95 -14 59
-9 571 -7 610 2 11 3 47 8 80 12 256 29 539 148 715 300 233 203 408 537 447
855 55 450 -147 805 -605 1064 -134 76 -234 118 -574 242 -673 243 -763 281
-914 380 -161 106 -259 235 -271 356 -12 128 73 308 177 373 149 94 351 44
525 -130 75 -75 97 -103 223 -290 147 -218 238 -303 388 -357 83 -30 227 -30
302 0 147 60 259 193 321 377 28 87 33 105 46 207 12 86 3 295 -13 325 -6 9
-19 4 -52 -18 -155 -104 -295 -150 -445 -144 -149 6 -206 20 -465 115 -250 91
-334 117 -405 125 -56 6 -155 12 -158 9z"/>
<path d="M5744 6470 c-169 -42 -441 -42 -626 -1 -24 6 -43 9 -44 8 -1 -1 -13
-21 -28 -44 l-26 -42 40 -57 c45 -65 74 -135 89 -220 6 -32 13 -70 16 -83 2
-13 7 -49 11 -80 3 -31 8 -59 10 -63 3 -4 7 -92 9 -195 12 -487 13 -764 4
-823 -11 -80 -49 -191 -97 -288 l-36 -73 32 -31 31 -31 73 21 c81 24 138 32
243 34 66 0 192 -9 238 -18 126 -24 404 -25 507 -1 154 36 234 74 317 150 132
121 236 365 232 542 -6 289 -83 481 -251 630 -115 101 -246 152 -413 162 -118
7 -167 -6 -254 -67 -31 -22 -64 -40 -73 -40 -45 0 -44 48 7 273 29 126 50 175
99 230 l34 38 -22 44 c-24 50 -23 50 -122 25z m263 -721 c24 -12 51 -32 59
-45 20 -29 42 -102 50 -163 3 -25 8 -55 10 -66 22 -112 21 -465 -2 -580 -2
-11 -6 -32 -9 -48 -19 -104 -68 -186 -125 -212 -53 -24 -131 -17 -167 16 -48
44 -63 90 -87 269 -20 141 -15 562 8 655 19 79 54 144 92 174 36 28 113 28
171 0z"/>
<path d="M3475 5955 c-34 -123 -6 -253 70 -330 54 -54 115 -78 200 -79 103 -2
165 31 280 149 119 123 168 148 237 120 15 -6 40 -52 45 -85 1 -8 5 -100 9
-203 l6 -188 -59 39 c-130 88 -215 115 -358 114 -211 -1 -376 -63 -495 -185
-122 -125 -139 -341 -43 -532 50 -97 182 -206 308 -252 120 -44 186 -53 355
-49 91 2 176 6 189 10 49 11 170 20 276 20 161 -1 237 -13 328 -50 32 -14 62
-22 67 -19 6 3 23 25 39 49 l30 43 -57 59 c-62 63 -80 105 -90 204 -6 58 -6
67 -1 415 3 235 -1 294 -31 410 -32 124 -86 211 -165 265 -43 29 -129 64 -185
75 -70 13 -237 13 -330 -1 -52 -8 -115 -18 -140 -21 -25 -4 -97 -7 -160 -8
-129 0 -190 15 -259 66 -23 16 -43 29 -45 29 -2 0 -12 -29 -21 -65z m678 -680
c85 -40 119 -122 117 -285 -1 -209 -33 -315 -106 -361 -111 -68 -222 3 -260
166 -20 85 -14 263 11 340 46 140 132 191 238 140z"/>
<path d="M7485 5963 c-242 -51 -445 -214 -552 -443 -52 -112 -61 -160 -58
-300 4 -157 6 -175 38 -263 75 -206 265 -391 471 -461 138 -47 356 -65 484
-41 235 45 434 198 533 409 60 129 79 216 75 352 -2 67 -6 125 -9 130 -3 5 -8
25 -11 45 -19 123 -105 269 -221 377 -89 83 -214 149 -345 183 -109 28 -303
34 -405 12z m287 -157 c54 -35 85 -109 103 -249 18 -134 23 -234 20 -402 -5
-253 -13 -338 -37 -402 -64 -173 -238 -205 -322 -60 -51 87 -81 286 -80 517 1
429 40 587 150 625 43 15 120 1 166 -29z"/>
<path d="M9357 5974 c-1 -1 -33 -4 -72 -8 -38 -3 -81 -8 -95 -11 -246 -46
-353 -47 -501 -4 -36 10 -68 19 -71 19 -3 0 -15 -20 -28 -44 l-23 -45 27 -32
c54 -64 91 -153 111 -269 15 -83 22 -570 10 -675 -14 -132 -50 -229 -114 -309
-17 -21 -31 -41 -31 -44 0 -6 40 -93 46 -101 2 -2 27 6 55 19 67 28 121 34
299 33 136 0 222 -13 335 -48 15 -4 32 4 62 32 l41 38 -25 30 c-139 168 -177
320 -176 710 0 316 33 486 105 551 70 64 171 19 184 -81 6 -53 -8 -96 -61
-176 -103 -154 -113 -254 -41 -380 46 -79 86 -111 168 -136 52 -15 106 -12
151 8 l26 12 -19 37 c-12 23 -17 49 -14 66 6 33 36 85 61 105 38 31 104 135
119 186 17 59 21 157 9 213 -26 121 -165 248 -310 284 -49 12 -219 27 -228 20z"/>
<path d="M10540 5949 c-281 -72 -504 -304 -546 -567 -3 -19 -8 -44 -10 -56
-12 -53 -11 -249 1 -314 37 -192 167 -358 356 -456 144 -74 253 -96 484 -101
174 -3 266 6 384 41 246 71 383 350 255 518 -42 56 -146 109 -246 126 -95 17
-188 0 -241 -42 -27 -22 -28 -24 -10 -43 40 -44 58 -106 58 -195 -1 -77 -4
-92 -31 -141 -46 -80 -103 -113 -198 -114 -63 0 -78 4 -114 28 -87 57 -130
168 -139 352 l-5 120 163 39 c90 22 169 41 174 42 6 1 84 19 175 39 91 20 172
38 180 40 8 2 72 16 143 31 l127 27 0 37 c0 121 -90 301 -206 415 -160 156
-510 237 -754 174z m325 -149 c97 -60 135 -330 58 -412 -22 -23 -51 -33 -182
-63 -86 -20 -167 -40 -181 -45 l-26 -8 23 152 c26 170 43 230 86 299 55 90
149 122 222 77z"/>
<path d="M12050 5959 c-74 -12 -166 -59 -218 -111 -40 -39 -111 -143 -116
-171 -2 -7 -6 -19 -9 -27 -25 -56 -27 -159 -6 -240 52 -197 165 -270 604 -386
268 -71 348 -127 339 -241 -7 -99 -78 -165 -199 -188 -152 -28 -262 35 -270
154 -4 55 22 119 61 150 13 10 24 21 24 24 0 9 -65 44 -123 65 -64 24 -146 36
-225 34 -176 -5 -294 -178 -223 -326 29 -60 104 -134 159 -158 59 -27 196 -65
257 -74 28 -3 73 -10 100 -14 54 -9 315 -5 380 5 226 35 393 129 478 268 46
74 68 158 71 267 6 158 -71 268 -247 354 -101 48 -190 79 -379 127 -193 49
-320 105 -352 154 -37 56 -25 151 25 187 34 25 95 25 145 0 37 -19 128 -88
179 -135 195 -183 430 -120 464 123 9 68 5 150 -7 162 -5 5 -30 -4 -57 -18
-35 -20 -62 -27 -104 -28 -54 0 -211 13 -221 19 -3 2 -34 6 -70 10 -36 4 -85
10 -109 15 -59 11 -283 10 -351 -1z"/>
<path d="M8910 4310 c-30 -4 -91 -16 -135 -28 -106 -28 -145 -33 -240 -32
-102 0 -129 4 -198 28 l-56 20 -20 -31 -20 -32 26 -24 c29 -28 69 -109 78
-161 23 -128 31 -248 29 -435 -1 -115 -5 -224 -8 -241 -13 -71 -49 -168 -83
-225 l-35 -61 33 -34 34 -34 53 27 c65 32 162 38 272 17 198 -39 355 -49 450
-31 146 29 264 111 354 246 57 85 79 138 101 236 40 177 13 371 -70 510 -42
69 -130 163 -195 206 -54 36 -155 68 -235 75 -33 3 -64 6 -70 8 -5 1 -35 -1
-65 -4z m84 -124 c18 -8 41 -24 50 -37 17 -24 51 -127 61 -184 10 -58 19 -252
18 -385 -2 -246 -45 -390 -127 -429 -107 -52 -184 -2 -215 140 -9 39 -25 331
-23 424 1 118 15 280 28 330 33 134 107 183 208 141z"/>
<path d="M12245 4312 c-284 -18 -502 -94 -542 -189 -9 -22 -20 -33 -33 -33
-33 0 -115 -46 -145 -82 -48 -57 -77 -133 -81 -212 -6 -134 40 -251 133 -336
29 -27 53 -55 53 -63 0 -35 65 -139 116 -186 259 -237 839 -262 1151 -50 121
82 178 173 177 284 -1 86 -25 141 -94 217 -60 65 -82 128 -76 215 6 83 11 97
50 127 39 29 61 76 52 109 -18 72 -176 150 -369 181 -93 15 -295 25 -392 18z
m-460 -376 c15 -11 18 -26 18 -83 -1 -80 -25 -142 -73 -188 -17 -16 -40 -45
-51 -62 -23 -37 -29 -34 -66 27 -67 111 -34 267 67 312 26 12 85 9 105 -6z"/>
<path d="M10155 4139 c-137 -13 -249 -65 -344 -160 -103 -102 -149 -218 -158
-390 -6 -115 4 -177 41 -261 49 -111 172 -218 302 -263 96 -33 120 -36 284
-40 229 -5 343 27 429 121 105 114 105 258 1 328 -42 28 -120 55 -175 60 -47
4 -119 -16 -145 -39 -18 -17 -18 -18 0 -37 20 -21 40 -90 40 -135 0 -87 -52
-163 -124 -183 -141 -39 -236 78 -232 286 1 78 1 78 31 86 63 17 328 77 498
114 l178 38 -7 50 c-12 100 -77 221 -157 292 -42 37 -172 104 -202 104 -9 0
-24 4 -33 9 -9 5 -44 12 -76 15 -32 4 -62 8 -65 9 -3 2 -42 0 -86 -4z m159
-130 c39 -31 56 -70 62 -152 8 -90 -6 -142 -44 -161 -15 -7 -74 -24 -132 -36
-58 -13 -111 -25 -119 -28 -14 -5 -13 20 5 136 26 174 83 261 170 262 17 0 43
-9 58 -21z"/>
<path d="M1624 3872 c-4 -15 -14 -57 -24 -95 l-16 -67 32 -19 c18 -11 40 -31
50 -46 45 -69 28 -266 -42 -475 -25 -74 -63 -192 -84 -262 -50 -167 -55 -175
-63 -102 -14 121 -26 164 -110 404 -67 188 -72 212 -72 320 0 79 2 88 33 133
17 26 32 51 32 54 0 3 -12 43 -26 89 l-25 85 -33 -21 c-19 -11 -85 -34 -147
-50 -105 -28 -126 -30 -269 -29 -211 2 -259 10 -358 60 -45 23 -84 40 -86 38
-2 -2 -14 -45 -26 -95 l-24 -91 23 -24 c57 -59 103 -158 125 -269 3 -14 13
-63 22 -110 20 -95 24 -323 11 -633 -7 -168 -10 -211 -22 -315 -13 -102 -57
-298 -97 -427 -56 -184 -111 -280 -194 -343 -123 -92 -195 -197 -219 -319 -20
-103 8 -248 64 -333 42 -63 50 -72 104 -113 139 -106 320 -146 652 -145 173 1
236 4 405 23 30 3 75 8 100 11 25 2 59 7 75 9 17 2 53 7 80 10 28 3 61 8 75
11 14 2 45 6 70 9 50 5 291 34 330 40 14 2 52 6 85 10 33 3 78 8 100 10 22 3
65 7 96 10 31 2 85 6 120 9 309 26 538 23 749 -9 193 -30 334 -79 461 -160
l66 -43 6 67 c9 98 33 158 87 212 62 62 138 91 247 93 91 1 92 5 19 54 -107
72 -283 131 -441 147 -33 4 -73 9 -90 11 -40 7 -398 7 -455 0 -25 -3 -76 -8
-115 -11 -92 -7 -174 -16 -205 -20 -14 -2 -47 -7 -75 -10 -27 -4 -61 -8 -75
-10 -37 -6 -219 -33 -265 -40 -22 -3 -51 -8 -65 -11 -58 -11 -69 -13 -106 -19
-49 -7 -84 -13 -154 -25 -95 -16 -114 -20 -138 -24 -13 -3 -78 -15 -145 -26
-170 -29 -167 -29 -212 -35 -22 -4 -47 -8 -55 -10 -8 -2 -33 -6 -55 -9 -22 -3
-89 -12 -150 -20 -269 -37 -311 -40 -505 -39 -254 0 -374 35 -444 126 -53 69
-67 163 -36 242 20 52 78 113 134 139 54 26 164 44 233 40 145 -10 228 -26
306 -59 20 -8 38 -11 40 -7 3 4 13 45 22 91 16 81 16 84 -2 94 -54 30 -111
111 -173 247 -11 23 -38 139 -45 190 -7 53 -7 420 0 500 3 30 7 78 10 105 2
28 7 79 11 115 3 36 7 75 9 86 4 24 18 189 19 217 0 20 15 23 20 5 2 -7 13
-42 24 -78 11 -36 48 -155 82 -265 34 -110 85 -272 112 -360 39 -122 181 -658
223 -842 14 -59 24 -73 54 -73 l29 0 40 158 c113 442 236 868 332 1152 63 189
120 343 125 338 5 -6 19 -129 30 -273 3 -38 8 -95 12 -125 3 -30 6 -219 6
-420 -1 -301 -4 -377 -17 -433 -24 -101 -77 -208 -127 -257 l-43 -41 38 -76
c29 -60 40 -74 54 -68 62 25 226 74 267 80 191 28 534 -4 673 -62 38 -16 62
-12 62 11 0 7 10 50 23 94 l24 81 -43 16 c-60 23 -116 80 -149 150 -57 125
-124 358 -150 525 -3 19 -7 46 -10 60 -2 14 -7 54 -10 90 -3 36 -8 81 -10 100
-4 27 -13 339 -18 600 0 17 11 142 19 210 23 202 49 278 129 381 l45 57 -52
71 c-38 53 -56 70 -67 65 -120 -54 -219 -68 -466 -67 -171 0 -244 12 -355 57
l-60 25 -6 -27z"/>
<path d="M5125 3887 c-370 -34 -569 -173 -640 -447 -47 -180 7 -411 122 -522
90 -86 224 -116 359 -78 161 45 243 302 134 418 -38 40 -67 53 -134 59 -80 7
-143 -13 -181 -58 -32 -39 -31 -45 5 -58 17 -5 30 -11 30 -13 0 -2 4 -18 9
-36 8 -27 6 -36 -12 -58 -43 -49 -121 -40 -158 18 -17 28 -19 43 -14 96 11
125 73 193 200 222 49 11 260 14 305 5 14 -3 37 -7 52 -10 50 -9 78 -24 79
-42 0 -10 3 -29 6 -43 14 -59 4 -1223 -13 -1490 -10 -169 -52 -253 -162 -325
-23 -15 -41 -31 -40 -34 10 -21 71 -137 73 -139 1 -1 23 7 49 18 117 50 502
80 637 50 30 -6 63 -13 74 -16 11 -2 58 -15 104 -29 46 -13 87 -22 91 -20 5 3
18 35 30 71 l22 66 -65 59 c-36 32 -80 82 -99 111 -51 77 -59 129 -73 493 -3
92 -8 876 -6 1098 l1 67 63 0 c80 0 177 23 240 57 95 53 197 198 226 323 12
50 14 143 5 177 l-6 22 -52 -19 c-45 -16 -71 -23 -176 -46 -39 -9 -280 -11
-330 -3 -25 4 -67 10 -95 13 -109 14 -132 17 -185 26 -149 25 -323 31 -475 17z"/>
<path d="M3180 3477 c-61 -17 -112 -50 -154 -99 -74 -86 -91 -170 -57 -275 65
-202 242 -287 424 -205 125 57 181 143 182 277 0 68 -4 89 -28 137 -65 132
-225 204 -367 165z"/>
<path d="M6769 3475 c-130 -42 -215 -148 -217 -272 -2 -82 18 -142 72 -216
166 -229 549 -102 548 183 0 128 -68 236 -180 288 -67 30 -159 38 -223 17z"/>
<path d="M11937 2923 c-41 -72 -44 -231 -6 -309 46 -97 133 -153 247 -162 57
-4 70 -1 135 31 56 28 92 57 161 127 94 97 144 130 189 125 72 -8 85 -48 93
-290 l7 -198 -46 31 c-67 47 -180 101 -223 108 -22 3 -42 8 -46 10 -9 6 -143
6 -206 -1 -186 -17 -352 -109 -437 -240 -28 -44 -38 -68 -52 -125 -7 -30 -7
-126 0 -177 31 -231 227 -410 507 -463 87 -17 281 -14 421 5 200 28 371 23
449 -13 143 -65 181 -255 76 -378 -74 -86 -234 -125 -494 -119 -78 2 -165 6
-192 9 -28 3 -74 9 -102 12 -29 3 -64 7 -78 9 -14 2 -49 7 -79 10 -30 4 -62 8
-72 10 -9 2 -39 7 -66 11 -26 3 -57 8 -68 10 -11 3 -49 9 -85 14 -36 5 -76 12
-90 15 -37 6 -320 55 -355 61 -16 2 -41 7 -55 9 -52 11 -75 15 -115 20 -22 3
-47 8 -55 10 -8 2 -33 6 -55 10 -22 3 -51 8 -65 10 -149 25 -244 39 -345 50
-33 4 -63 9 -66 11 -3 1 -45 6 -94 9 -48 4 -96 8 -106 10 -45 9 -259 18 -396
17 -325 -2 -609 -74 -741 -187 l-35 -31 63 1 c222 7 355 -121 359 -347 l1 -28
68 44 c149 96 306 146 532 170 30 4 78 9 105 11 103 11 389 6 585 -10 137 -12
176 -16 210 -20 19 -2 58 -7 85 -10 108 -11 212 -24 255 -30 14 -2 48 -7 75
-10 28 -3 68 -8 90 -11 22 -2 51 -7 65 -9 14 -2 50 -7 80 -10 30 -3 71 -7 90
-10 19 -2 55 -7 80 -10 25 -3 61 -7 80 -10 220 -27 634 -28 765 -1 230 47 377
148 441 306 22 52 28 83 30 158 3 133 -28 223 -111 325 -84 104 -99 163 -95
397 7 478 4 529 -34 660 -83 287 -296 379 -731 313 -217 -33 -354 -29 -440 10
-33 16 -70 37 -81 48 -12 11 -24 17 -27 12z m635 -728 c96 -30 150 -149 142
-318 -7 -153 -17 -205 -52 -274 -42 -81 -126 -112 -204 -74 -90 44 -129 153
-123 344 4 127 19 190 65 265 33 54 103 78 172 57z"/>
<path d="M6487 2850 c-15 -21 -27 -41 -27 -45 0 -4 16 -25 35 -48 54 -63 82
-130 111 -267 37 -179 37 -176 37 -390 0 -176 -5 -267 -19 -340 -2 -14 -7 -38
-10 -54 -16 -90 -60 -174 -121 -230 l-25 -24 34 -50 c26 -39 37 -48 48 -41 23
14 117 48 152 55 73 13 334 -8 448 -36 19 -5 56 -11 81 -14 l46 -6 13 58 12
58 -46 49 c-50 54 -101 148 -111 205 -12 73 -18 192 -19 380 0 399 24 500 157
654 l25 29 -21 44 c-11 23 -26 43 -31 43 -6 0 -34 -9 -62 -19 -28 -11 -84 -26
-125 -33 -74 -14 -273 -16 -339 -4 -76 14 -137 30 -175 46 l-41 17 -27 -37z"/>
<path d="M9837 2884 c-1 -1 -36 -4 -77 -8 -67 -5 -121 -12 -230 -30 -161 -27
-231 -26 -353 3 -45 11 -89 22 -98 26 -11 4 -21 -7 -37 -39 l-23 -45 35 -48
c43 -60 82 -147 91 -204 4 -24 9 -53 11 -64 8 -40 14 -204 14 -410 1 -250 -6
-322 -37 -413 -16 -47 -66 -134 -95 -166 -20 -21 -17 -37 13 -97 l18 -36 50
23 c99 48 381 53 551 10 56 -14 107 -23 114 -19 6 4 26 20 43 37 l33 30 -24
26 c-98 107 -157 261 -172 450 -19 240 -4 565 32 690 36 126 104 180 180 144
44 -21 65 -56 68 -113 4 -56 -8 -85 -68 -176 -46 -70 -88 -178 -82 -212 2 -10
7 -36 10 -57 26 -139 150 -248 276 -242 30 2 67 8 82 14 l28 11 -21 40 c-17
33 -19 46 -10 76 8 29 77 126 111 155 14 12 51 81 66 121 22 64 20 193 -6 262
-34 90 -154 195 -266 232 -39 12 -218 36 -227 29z"/>
<path d="M11167 2884 c-1 -1 -33 -5 -72 -8 -38 -4 -77 -9 -85 -11 -8 -2 -35
-7 -60 -11 -25 -3 -52 -7 -60 -9 -133 -27 -268 -22 -392 14 -73 21 -73 21
-102 -36 -16 -32 -16 -33 17 -77 99 -129 118 -231 120 -639 1 -378 -14 -460
-114 -594 l-39 -52 25 -54 26 -55 37 18 c71 34 125 42 292 42 161 0 203 -5
338 -43 43 -12 44 -11 82 26 l39 39 -35 43 c-73 89 -132 228 -148 348 -24 178
-24 466 -1 650 16 131 55 230 103 261 31 21 86 21 117 0 70 -46 72 -151 7
-245 -86 -122 -114 -208 -98 -291 26 -124 103 -217 203 -246 57 -17 126 -14
163 6 24 13 24 12 1 51 -31 51 -15 97 66 190 66 75 90 115 106 179 16 62 14
173 -4 228 -42 130 -207 251 -366 267 -56 6 -163 12 -166 9z"/>
<path d="M2886 2840 c-25 -39 -26 -40 -8 -58 54 -54 103 -147 117 -219 2 -15
7 -37 9 -48 47 -209 48 -224 43 -444 -6 -245 -10 -291 -37 -398 -20 -77 -59
-149 -105 -192 -14 -13 -25 -26 -25 -30 0 -4 13 -28 30 -54 29 -45 31 -47 52
-33 75 48 218 69 348 52 197 -27 249 -35 270 -41 8 -2 34 -7 57 -10 40 -6 43
-4 49 22 3 15 10 42 14 59 7 29 4 36 -35 74 -43 43 -102 143 -110 190 -19 111
-23 178 -23 415 0 372 21 473 133 609 l48 60 -23 43 c-26 48 -26 48 -77 29
-166 -64 -438 -68 -611 -10 -40 13 -76 24 -81 24 -5 0 -20 -18 -35 -40z"/>
<path d="M7972 2864 c-155 -34 -266 -97 -386 -217 -115 -116 -171 -229 -195
-397 -14 -95 -17 -228 -7 -305 38 -286 313 -531 639 -571 23 -3 112 -7 198
-10 142 -6 181 -3 329 22 122 21 216 81 311 201 54 70 71 223 31 299 -67 130
-319 210 -462 147 -67 -30 -77 -45 -51 -82 73 -103 66 -281 -15 -371 -55 -61
-170 -89 -241 -58 -121 53 -175 177 -177 413 l-1 79 95 23 c52 12 176 41 275
64 99 23 218 50 265 61 47 11 94 21 105 24 96 18 205 43 213 47 29 19 -21 196
-87 307 -92 155 -227 250 -431 306 -117 31 -309 40 -408 18z m292 -153 c71
-47 101 -130 100 -281 -1 -75 -16 -122 -47 -149 -22 -18 -377 -100 -377 -87 0
6 5 38 10 71 5 33 13 80 16 105 3 25 8 53 10 62 3 10 7 30 10 45 31 184 173
303 278 234z"/>
</g>
</svg>
